<svg xmlns="http://www.w3.org/2000/svg" viewBox="0 0 24 24" id="Edit-4-Line--Streamline-Mingcute.svg"><desc>Edit 4 Line Streamline Icon: https://streamlinehq.com</desc><g fill="none" fill-rule="evenodd"><path d="M24 0v24H0V0h24ZM12.594 23.258l-0.012 0.002 -0.071 0.035 -0.02 0.004 -0.014 -0.004 -0.071 -0.036c-0.01 -0.003 -0.019 0 -0.024 0.006l-0.004 0.01 -0.017 0.428 0.005 0.02 0.01 0.013 0.104 0.074 0.015 0.004 0.012 -0.004 0.104 -0.074 0.012 -0.016 0.004 -0.017 -0.017 -0.427c-0.002 -0.01 -0.009 -0.017 -0.016 -0.018Zm0.264 -0.113 -0.014 0.002 -0.184 0.093 -0.01 0.01 -0.003 0.011 0.018 0.43 0.005 0.012 0.008 0.008 0.201 0.092c0.012 0.004 0.023 0 0.029 -0.008l0.004 -0.014 -0.034 -0.614c-0.003 -0.012 -0.01 -0.02 -0.02 -0.022Zm-0.715 0.002a0.023 0.023 0 0 0 -0.027 0.006l-0.006 0.014 -0.034 0.614c0 0.012 0.007 0.02 0.017 0.024l0.015 -0.002 0.201 -0.093 0.01 -0.008 0.003 -0.011 0.018 -0.43 -0.003 -0.012 -0.01 -0.01 -0.184 -0.092Z" stroke-width="1"></path><path fill="#966afc" d="M5 2a2 2 0 0 0 -2 2v15a2 2 0 0 0 2 2h3v-2H5V4h12v4h2V4a2 2 0 0 0 -2 -2H5Zm3 5a1 1 0 0 0 0 2h4a1 1 0 1 0 0 -2H8Zm7.949 3.811a3 3 0 0 1 4.242 4.243l-5.656 5.657a1 1 0 0 1 -0.707 0.293h-2.829a1 1 0 0 1 -1 -1v-2.829a1 1 0 0 1 0.293 -0.707l5.657 -5.657Zm2.828 1.414a1 1 0 0 0 -1.414 0l1.414 1.415a1 1 0 0 0 0 -1.415Zm-1.414 2.829 -1.414 -1.414 -3.95 3.95v1.414h1.414l3.95 -3.95Z" stroke-width="1"></path></g></svg>