<svg xmlns="http://www.w3.org/2000/svg" viewBox="0 0 24 24" id="Book-2-Line--Streamline-Mingcute.svg"><desc>Book 2 Line Streamline Icon: https://streamlinehq.com</desc><g fill="none" fill-rule="nonzero"><path d="M24 0v24H0V0h24ZM12.593 23.258l-0.011 0.002 -0.071 0.035 -0.02 0.004 -0.014 -0.004 -0.071 -0.035c-0.01 -0.004 -0.019 -0.001 -0.024 0.005l-0.004 0.01 -0.017 0.428 0.005 0.02 0.01 0.013 0.104 0.074 0.015 0.004 0.012 -0.004 0.104 -0.074 0.012 -0.016 0.004 -0.017 -0.017 -0.427c-0.002 -0.01 -0.009 -0.017 -0.017 -0.018Zm0.265 -0.113 -0.013 0.002 -0.185 0.093 -0.01 0.01 -0.003 0.011 0.018 0.43 0.005 0.012 0.008 0.007 0.201 0.093c0.012 0.004 0.023 0 0.029 -0.008l0.004 -0.014 -0.034 -0.614c-0.003 -0.012 -0.01 -0.02 -0.02 -0.022Zm-0.715 0.002a0.023 0.023 0 0 0 -0.027 0.006l-0.006 0.014 -0.034 0.614c0 0.012 0.007 0.02 0.017 0.024l0.015 -0.002 0.201 -0.093 0.01 -0.008 0.004 -0.011 0.017 -0.43 -0.003 -0.012 -0.01 -0.01 -0.184 -0.092Z" stroke-width="1"></path><path fill="#000000" d="M18 2a2 2 0 0 1 2 2v12.99c0 0.168 -0.038 0.322 -0.113 0.472l-0.545 1.09a1 1 0 0 0 0 0.895l0.543 1.088A1 1 0 0 1 19 22H7a3 3 0 0 1 -3 -3V5a3 3 0 0 1 3 -3h11Zm-0.592 16H7a1 1 0 0 0 -0.117 1.993L7 20h10.408a3.001 3.001 0 0 1 -0.068 -1.782l0.068 -0.218ZM18 4H7a1 1 0 0 0 -0.993 0.883L6 5v11.17c0.25 -0.088 0.516 -0.144 0.791 -0.163L7 16h11V4Zm-4 3a1 1 0 0 1 0.117 1.993L14 9h-4a1 1 0 0 1 -0.117 -1.993L10 7h4Z" stroke-width="1"></path></g></svg>