<svg xmlns="http://www.w3.org/2000/svg" viewBox="0 0 24 24" id="Check-Circle-Line--Streamline-Mingcute.svg"><desc>Check Circle Line Streamline Icon: https://streamlinehq.com</desc><g fill="none" fill-rule="nonzero"><path d="M24 0v24H0V0h24ZM12.593 23.258l-0.011 0.002 -0.071 0.035 -0.02 0.004 -0.014 -0.004 -0.071 -0.035c-0.01 -0.004 -0.019 -0.001 -0.024 0.005l-0.004 0.01 -0.017 0.428 0.005 0.02 0.01 0.013 0.104 0.074 0.015 0.004 0.012 -0.004 0.104 -0.074 0.012 -0.016 0.004 -0.017 -0.017 -0.427c-0.002 -0.01 -0.009 -0.017 -0.017 -0.018Zm0.265 -0.113 -0.013 0.002 -0.185 0.093 -0.01 0.01 -0.003 0.011 0.018 0.43 0.005 0.012 0.008 0.007 0.201 0.093c0.012 0.004 0.023 0 0.029 -0.008l0.004 -0.014 -0.034 -0.614c-0.003 -0.012 -0.01 -0.02 -0.02 -0.022Zm-0.715 0.002a0.023 0.023 0 0 0 -0.027 0.006l-0.006 0.014 -0.034 0.614c0 0.012 0.007 0.02 0.017 0.024l0.015 -0.002 0.201 -0.093 0.01 -0.008 0.004 -0.011 0.017 -0.43 -0.003 -0.012 -0.01 -0.01 -0.184 -0.092Z" stroke-width="1"></path><path fill="#7fff00" d="M12 2c5.523 0 10 4.477 10 10s-4.477 10 -10 10S2 17.523 2 12 6.477 2 12 2Zm0 2a8 8 0 1 0 0 16 8 8 0 0 0 0 -16Zm3.535 4.381a1 1 0 0 1 1.498 1.32l-0.083 0.094 -5.586 5.587a1.1 1.1 0 0 1 -1.46 0.085l-0.096 -0.085 -2.758 -2.758a1 1 0 0 1 1.32 -1.498l0.094 0.084 2.122 2.121 4.95 -4.95Z" stroke-width="1"></path></g></svg>