<svg xmlns="http://www.w3.org/2000/svg" viewBox="0 0 24 24" id="Delete-3-Line--Streamline-Mingcute.svg"><desc>Delete 3 Line Streamline Icon: https://streamlinehq.com</desc><g fill="none" fill-rule="evenodd"><path d="M24 0v24H0V0h24ZM12.594 23.258l-0.012 0.002 -0.071 0.035 -0.02 0.004 -0.014 -0.004 -0.071 -0.036c-0.01 -0.003 -0.019 0 -0.024 0.006l-0.004 0.01 -0.017 0.428 0.005 0.02 0.01 0.013 0.104 0.074 0.015 0.004 0.012 -0.004 0.104 -0.074 0.012 -0.016 0.004 -0.017 -0.017 -0.427c-0.002 -0.01 -0.009 -0.017 -0.016 -0.018Zm0.264 -0.113 -0.014 0.002 -0.184 0.093 -0.01 0.01 -0.003 0.011 0.018 0.43 0.005 0.012 0.008 0.008 0.201 0.092c0.012 0.004 0.023 0 0.029 -0.008l0.004 -0.014 -0.034 -0.614c-0.003 -0.012 -0.01 -0.02 -0.02 -0.022Zm-0.715 0.002a0.023 0.023 0 0 0 -0.027 0.006l-0.006 0.014 -0.034 0.614c0 0.012 0.007 0.02 0.017 0.024l0.015 -0.002 0.201 -0.093 0.01 -0.008 0.003 -0.011 0.018 -0.43 -0.003 -0.012 -0.01 -0.01 -0.184 -0.092Z" stroke-width="1"></path><path fill="#000000" d="M14.28 2a2 2 0 0 1 1.897 1.368L16.72 5H20a1 1 0 1 1 0 2h-1v12a3 3 0 0 1 -3 3H8a3 3 0 0 1 -3 -3V7H4a1 1 0 0 1 0 -2h3.28l0.543 -1.632A2 2 0 0 1 9.721 2h4.558ZM17 7H7v12a1 1 0 0 0 1 1h8a1 1 0 0 0 1 -1V7Zm-2.72 -3H9.72l-0.333 1h5.226l-0.334 -1Z" stroke-width="1"></path></g></svg>