<svg xmlns="http://www.w3.org/2000/svg" viewBox="0 0 24 24" id="Bookmarks-Line--Streamline-Mingcute.svg"><desc>Bookmarks Line Streamline Icon: https://streamlinehq.com</desc><g fill="none" fill-rule="evenodd"><path d="M24 0v24H0V0h24ZM12.594 23.258l-0.012 0.002 -0.071 0.035 -0.02 0.004 -0.014 -0.004 -0.071 -0.036c-0.01 -0.003 -0.019 0 -0.024 0.006l-0.004 0.01 -0.017 0.428 0.005 0.02 0.01 0.013 0.104 0.074 0.015 0.004 0.012 -0.004 0.104 -0.074 0.012 -0.016 0.004 -0.017 -0.017 -0.427c-0.002 -0.01 -0.009 -0.017 -0.016 -0.018Zm0.264 -0.113 -0.014 0.002 -0.184 0.093 -0.01 0.01 -0.003 0.011 0.018 0.43 0.005 0.012 0.008 0.008 0.201 0.092c0.012 0.004 0.023 0 0.029 -0.008l0.004 -0.014 -0.034 -0.614c-0.003 -0.012 -0.01 -0.02 -0.02 -0.022Zm-0.715 0.002a0.023 0.023 0 0 0 -0.027 0.006l-0.006 0.014 -0.034 0.614c0 0.012 0.007 0.02 0.017 0.024l0.015 -0.002 0.201 -0.093 0.01 -0.008 0.003 -0.011 0.018 -0.43 -0.003 -0.012 -0.01 -0.01 -0.184 -0.092Z" stroke-width="1"></path><path fill="#FFD700" d="M17 2a3 3 0 0 1 2.995 2.824L20 5v13.018c0 1.182 -1.293 1.883 -2.275 1.285l-0.107 -0.072 -0.618 -0.449v2.236c0 1.182 -1.293 1.883 -2.275 1.285l-0.107 -0.072 -4.118 -2.995 -4.118 2.995c-0.956 0.696 -2.283 0.062 -2.377 -1.084L4 21.018V8a3 3 0 0 1 3 -3 3 3 0 0 1 2.824 -2.995L10 2h7Zm-3 5H7a1 1 0 0 0 -0.993 0.883L6 8v12.036l3.618 -2.63a1.5 1.5 0 0 1 1.64 -0.082l0.124 0.081L15 20.036V8a1 1 0 0 0 -0.883 -0.993L14 7Zm3 -3h-7a1 1 0 0 0 -1 1h5a3 3 0 0 1 3 3v8.309l1 0.727V5a1 1 0 0 0 -1 -1Z" stroke-width="1"></path></g></svg>