<svg xmlns="http://www.w3.org/2000/svg" viewBox="0 0 24 24" id="Star-Line--Streamline-Mingcute.svg"><desc>Star Line Streamline Icon: https://streamlinehq.com</desc><g fill="none" fill-rule="evenodd"><path d="M24 0v24H0V0h24ZM12.593 23.258l-0.011 0.002 -0.071 0.035 -0.02 0.004 -0.014 -0.004 -0.071 -0.035c-0.01 -0.004 -0.019 -0.001 -0.024 0.005l-0.004 0.01 -0.017 0.428 0.005 0.02 0.01 0.013 0.104 0.074 0.015 0.004 0.012 -0.004 0.104 -0.074 0.012 -0.016 0.004 -0.017 -0.017 -0.427c-0.002 -0.01 -0.009 -0.017 -0.017 -0.018Zm0.265 -0.113 -0.013 0.002 -0.185 0.093 -0.01 0.01 -0.003 0.011 0.018 0.43 0.005 0.012 0.008 0.007 0.201 0.093c0.012 0.004 0.023 0 0.029 -0.008l0.004 -0.014 -0.034 -0.614c-0.003 -0.012 -0.01 -0.02 -0.02 -0.022Zm-0.715 0.002a0.023 0.023 0 0 0 -0.027 0.006l-0.006 0.014 -0.034 0.614c0 0.012 0.007 0.02 0.017 0.024l0.015 -0.002 0.201 -0.093 0.01 -0.008 0.004 -0.011 0.017 -0.43 -0.003 -0.012 -0.01 -0.01 -0.184 -0.092Z" stroke-width="1"></path><path fill="#FFD700" d="M10.92 2.868a1.25 1.25 0 0 1 2.16 0l2.795 4.798 5.428 1.176a1.25 1.25 0 0 1 0.667 2.054l-3.7 4.141 0.56 5.525a1.25 1.25 0 0 1 -1.748 1.27L12 19.592l-5.082 2.24a1.25 1.25 0 0 1 -1.748 -1.27l0.56 -5.525 -3.7 -4.14a1.25 1.25 0 0 1 0.667 -2.055l5.428 -1.176 2.795 -4.798ZM12 4.987 9.687 8.959a1.25 1.25 0 0 1 -0.816 0.592l-4.492 0.973 3.062 3.427c0.234 0.262 0.347 0.61 0.312 0.959l-0.463 4.573 4.206 -1.854a1.25 1.25 0 0 1 1.008 0l4.206 1.854 -0.463 -4.573a1.25 1.25 0 0 1 0.311 -0.959l3.063 -3.427 -4.492 -0.973a1.25 1.25 0 0 1 -0.816 -0.592L12 4.987Z" stroke-width="1"></path></g></svg>