<svg xmlns="http://www.w3.org/2000/svg" viewBox="0 0 24 24" id="Book-5-Line--Streamline-Mingcute.svg"><desc>Book 5 Line Streamline Icon: https://streamlinehq.com</desc><g fill="none" fill-rule="evenodd"><path d="M24 0v24H0V0h24ZM12.593 23.258l-0.011 0.002 -0.071 0.035 -0.02 0.004 -0.014 -0.004 -0.071 -0.035c-0.01 -0.004 -0.019 -0.001 -0.024 0.005l-0.004 0.01 -0.017 0.428 0.005 0.02 0.01 0.013 0.104 0.074 0.015 0.004 0.012 -0.004 0.104 -0.074 0.012 -0.016 0.004 -0.017 -0.017 -0.427c-0.002 -0.01 -0.009 -0.017 -0.017 -0.018Zm0.265 -0.113 -0.013 0.002 -0.185 0.093 -0.01 0.01 -0.003 0.011 0.018 0.43 0.005 0.012 0.008 0.007 0.201 0.093c0.012 0.004 0.023 0 0.029 -0.008l0.004 -0.014 -0.034 -0.614c-0.003 -0.012 -0.01 -0.02 -0.02 -0.022Zm-0.715 0.002a0.023 0.023 0 0 0 -0.027 0.006l-0.006 0.014 -0.034 0.614c0 0.012 0.007 0.02 0.017 0.024l0.015 -0.002 0.201 -0.093 0.01 -0.008 0.004 -0.011 0.017 -0.43 -0.003 -0.012 -0.01 -0.01 -0.184 -0.092Z" stroke-width="1"></path><path fill="#000000" d="M3 4a2 2 0 0 1 2 -2h2c0.364 0 0.706 0.097 1 0.268A1.99 1.99 0 0 1 9 2h2c0.727 0 1.364 0.388 1.714 0.969 0.21 -0.168 0.456 -0.296 0.732 -0.37l1.932 -0.517a2 2 0 0 1 2.45 1.414l4.14 15.455a2 2 0 0 1 -1.414 2.45l-1.932 0.517a2 2 0 0 1 -2.45 -1.414L13 8.663V20a2 2 0 0 1 -2 2H9a1.99 1.99 0 0 1 -1 -0.268A1.99 1.99 0 0 1 7 22H5a2 2 0 0 1 -2 -2V4Zm2 0h2v16H5V4Zm6 16H9V4h2v16Zm2.964 -15.469 1.931 -0.517 4.142 15.455 -1.932 0.517 -4.142 -15.455Z" stroke-width="1"></path></g></svg>